# xmcd
#
# Track frame offsets: 
#        150
#        29770
#        58326
#        79438
#        102308
#        128027
#        157665
#        183645
#        208190
#        232861
#        256279
#        279989
#        303621
#
# Disc length: 4289 seconds
#
# Revision: 0
# Processed by: cddbd v1.5.2PL0 Copyright (c) Steve Scherf et al.
# Submitted via: ExactAudioCopy v0.99pb4
#
DISCID=b810bf0d
DTITLE=Michael Capezzone - The Learning Tree
DYEAR=1900
DGENRE=Blues
TTITLE0=Questions Why
TTITLE1=The Learning Tree
TTITLE2=Secrets Of Love
TTITLE3=Sanibel
TTITLE4=My Father
TTITLE5=Last Night
TTITLE6=Latin Bluegrass #1
TTITLE7=Brothers and Sisters
TTITLE8=Broken Man
TTITLE9=Hope And Peace
TTITLE10=My Love, My Dear
TTITLE11=And That's Good News
TTITLE12=Circles
EXTD=
EXTT0=
EXTT1=
EXTT2=
EXTT3=
EXTT4=
EXTT5=
EXTT6=
EXTT7=
EXTT8=
EXTT9=
EXTT10=
EXTT11=
EXTT12=
PLAYORDER=
